<?xml version="1.0" encoding="UTF-8"?>
<svg id="Layer_1" xmlns="http://www.w3.org/2000/svg" version="1.1" xmlns:xlink="http://www.w3.org/1999/xlink" viewBox="0 0 152.3 147.9">
  <!-- Generator: Adobe Illustrator 29.4.0, SVG Export Plug-In . SVG Version: 2.1.0 Build 152)  -->
  <defs>
    <style>
      .st0 {
        fill: #fff;
      }
    </style>
  </defs>
  <path class="st0" d="M70,142.3c-31.6-.3-58-26.3-63.5-56.6-1.5-8.1-1.5-20.1.2-28.2C11.9,31.2,33.7,9.1,60,3.7c26.3-5.4,20-1.7,28-.3,30.5,5.3,57,31.9,57.2,63.7.2,3.6-.2,7.3,0,10.9-1,33.3-31.1,63.5-64.4,64.4h-10.9.1ZM82.3,110.3c.9-.8,4.5-1.1,5.9-1.4s8-2.1,8.6-3.6.2-1.5,0-2.2c-.2-1.3-2.5-9-3.2-9.6-1.3-1.1-4.5,1-6.1,1.6-4.9,1.7-17.4,3.7-19.2-3s4.4-7.9,8.2-9.7c6.1-2.9,13.1-4.7,17.8-9.8,9.9-10.7,6.4-27.6-6.8-33.6-2.8-1.3-6.3-1.1-6.7-4.7s1-8.2-1.5-9.2-6.8-.4-8.2-.2c-4.1.6-1.6,7.1-2.7,10.1s-5,1.6-6.5,2c-2.2.5-9.8,2.5-10.9,4.4s-.3,1.7-.2,2.6,2.6,9.5,3.2,9.9c1.2.8,5-1.5,6.4-2.1,6-2.2,18.7-5,22.2,2.4s-3.5,9.5-7.9,11.6-12.1,4.3-17.2,8.9c-9.9,8.9-7.5,24.5,3.6,31.1,1.6.9,7.4,3,8,3.8,1.5,1.9-.3,8.6,1.2,10.1s9.5.9,10.5,0,.2-8.3,1.4-9.3h0Z"/>
  <image width="249" height="120" transform="translate(-386.5 -133.1)" xlink:href="dollar-1.png"/>
</svg>