<?xml version="1.0" encoding="UTF-8"?>
<svg id="Layer_1" xmlns="http://www.w3.org/2000/svg" version="1.1" viewBox="0 0 128 128">
  <!-- Generator: Adobe Illustrator 29.4.0, SVG Export Plug-In . SVG Version: 2.1.0 Build 152)  -->
  <defs>
    <style>
      .st0 {
        fill: #0b76bb;
      }

      .st1 {
        fill: #f5eb25;
      }

      .st2 {
        fill: #fff;
      }

      .st3 {
        fill: #e9242a;
      }

      .st4 {
        fill: #3bb54a;
      }
    </style>
  </defs>
  <path class="st0" d="M101.7,42.5c8.2,8.2,16.2,16.6,24.5,24.7l.2.6-35.7,35.1h-.3c0,0-.4,0-.4,0l-7.3-7.4c2.2-2.2,4.4-4.5,6.6-6.8.7.1,2-.3,2.8-.4,2.3-.1,4.4.4,6.6-.7,3.4-1.6,1.7-3.4,1.5-6.3-.4-5.4,2.4-6.8,3-11,.2-1.5-.1-1.7.3-3.3s-.3-2-.3-3.1.5-1.7.6-2.5c.3-3-2-5.4-3-8-1.4-3.9-.7-9-6.1-10s-2.2.8-2.4.7-1.6-2-1.9-2.3c-1.1-1-2.9-1.4-3.3-3-.4-.3-.9,1-1.4,1s-1.4-.9-1.8-1l7.1-7c3.4,3.7,7.2,7.2,10.8,10.8Z"/>
  <g>
    <path class="st1" d="M42.5,29.4L71,1.5l35.1,35.7.2.6-4.7,4.7c-3.6-3.6-7.3-7.1-10.8-10.8l-7.1,7c-2.7-.5-4.8,1.5-7.1,1.5s-7.4-2.6-9.3-1.2-.5.9-.6,1c-.5.1-2,0-2.8.2-1.8.3-5.2,1.1-5.2,3.3s3.8,1.2,2.7,3.8-.7.5-.8.6c-.3-.1-.6-.3-.9-.6-2.7-2.4-5.5-5.8-8.1-8.4s-6.2-6.4-9.3-9.6Z"/>
    <path class="st3" d="M23.5,82.5L1.3,59.9,37,24.5c.4-.2,1.3.7,1.6,1,1.2,1.2,2.7,2.7,3.9,3.9,3.1,3.2,6.2,6.4,9.3,9.6s5.4,6.1,8.1,8.4.5.5.9.6c0,0-.6,1.3-.6,1.4.1.5,1,.5.9,1.1-.3,0-.5,0-.8,0-.9.2-2.4.5-3.3.5s-2.4-.8-3.4-.9c-2.5-.3-4.9,1.3-7.3,2s-3.2.8-4.8,1.3-1.9.8-2.4.8c-1,0-2.1-1.6-3.2-1.7-2.2-.3-2.3,1.8-4,1.9s-1.5-1-2.4-1.2c-1.7-.5-1.8,1.2-2.9,2.2s-2.5,1.1-3.1,1.8c-1.4,1.5.7,3.7.1,5.6s-.8,1-1,1.1c-.4.2-.4-1-1.3-1-1.3.1.3,2.2.3,2.8s-.6,1.8-.4,2.2.7.2,1,.3c1.9,1,3.4,3.5,5.7,4.4s2.3.5,4.1,1.7c-2.6,2.7-5.2,5.5-8,8.1s-.5.2-.6.3Z"/>
  </g>
  <g>
    <path class="st4" d="M32,74.2c0,0,.4,0,.6.1,1,.7,3.8,3.8,4.5,3.9s.5-.2.9,0c.6.3,1.5,2.2,2.8,2.7s.9,0,1.2.2,0,.9.5,1,.9-.4,1.4-.3,1.2,1,1.8,1.3,1.4,0,2.1.2,2.2.9,3.1,1.1,2.2-.4,3.2-.1.4,1,.5,1.1c.6.6,2.6-1.8,3.1-2,3-1.2,6,1.8,9.4,0s5.1-4.6,8.2-4.9,1.2.2,1.5.1.7-.8,1.5-.7,1.3.7,1.4.8.6,1.3.6,1.4c0,.4-.5.8-.3,1.2,1.9,0,3.7-.8,5.2.6s1.4,2.1,2,2.6,1.1,0,1.1,1.1-.5,2.8,1.4,3.1c-2.2,2.3-4.4,4.6-6.6,6.8-9.1,9.1-18.4,18-27.4,27.1l-.5.2-34.7-35c-.3-.4-.8-.9-.5-1.4,1.4-1.2,2.6-2.6,3.9-3.8s.4,0,.6-.3c2.7-2.6,5.3-5.4,8-8.1Z"/>
    <path class="st2" d="M83.9,38.7c.4,0,1.5.9,1.8,1,.5,0,1.1-1.2,1.4-1,.4,1.6,2.2,2,3.3,3s1.7,2.2,1.9,2.3.9-1,2.4-.7c5.4,1,4.7,6.2,6.1,10,1,2.6,3.3,5,3,8s-.5,1.6-.6,2.5.7,2,.3,3.1-.1,1.7-.3,3.3c-.6,4.2-3.4,5.7-3,11s1.9,4.6-1.5,6.3-4.3.6-6.6.7-2.1.5-2.8.4c-1.8-.3-1.4-2-1.4-3.1s-.5-.7-1.1-1.1-1.3-1.9-2-2.6c-1.5-1.4-3.4-.6-5.2-.6-.1-.4.4-.9.3-1.2s-.5-1.3-.6-1.4-1.2-.8-1.4-.8c-.8-.1-1.1.6-1.5.7s-.9-.2-1.5-.1c-3.1.4-5.7,3.6-8.2,4.9s-6.4-1.3-9.4,0-2.5,2.6-3.1,2,.2-.9-.5-1.1c-1-.3-2.1.3-3.2.1s-2.1-.9-3.1-1.1-1.3,0-2.1-.2-1.3-1.1-1.8-1.3-1,.4-1.4.3-.2-.9-.5-1-.8,0-1.2-.2c-1.3-.4-2.2-2.4-2.8-2.7s-.6.1-.9,0c-.7,0-3.5-3.2-4.5-3.9s-.5,0-.6-.1c-1.8-1.2-2.2-.9-4.1-1.7s-3.8-3.4-5.7-4.4-.9-.2-1-.3c-.3-.4.4-1.5.4-2.2s-1.6-2.7-.3-2.8.9,1.1,1.3,1,.9-.9,1-1.1c.6-1.9-1.5-4.1-.1-5.6s2.2-1,3.1-1.8,1.2-2.6,2.9-2.2,1.1,1.3,2.4,1.2,1.8-2.2,4-1.9,2.2,1.7,3.2,1.7,1.7-.7,2.4-.8c1.6-.5,3.2-.8,4.8-1.3,2.3-.7,4.8-2.3,7.3-2s2.4.9,3.4.9,2.4-.3,3.3-.5.5,0,.8,0c0-.6-.8-.6-.9-1.1s.5-1.3.6-1.4c0,0,.6,0,.8-.6,1.1-2.6-2.8-1.7-2.7-3.8s3.5-3,5.2-3.3,2.3,0,2.8-.2.2-.7.6-1c1.9-1.4,7.1,1.2,9.3,1.2s4.4-2,7.1-1.5Z"/>
  </g>
</svg>