<?xml version="1.0" encoding="UTF-8"?>
<svg id="Layer_1" xmlns="http://www.w3.org/2000/svg" version="1.1" viewBox="0 0 632.5 411.2">
  <!-- Generator: Adobe Illustrator 29.4.0, SVG Export Plug-In . SVG Version: 2.1.0 Build 152)  -->
  <defs>
    <style>
      .st0 {
        fill: #174793;
      }
    </style>
  </defs>
  <path class="st0" d="M557,21.2l18.8,38.9c-18.6,10.3-36.6,21.8-53.6,34.5-28.3,21.1-67.3,55.9-73.9,92.6-.8,4.3-1.5,11-.9,15.3s0,.6.3.8c2.9,0,5.8-.9,8.7-1.2,64.6-7.2,120.8,51.1,104.6,117.1-23.9,96.9-157.6,98.6-205.2,21.3-25.2-40.9-22.8-97.7-9-142.4,14.9-48.2,62.8-89.3,102.6-116.9,33.7-23.4,69.9-43,107.2-60h.5Z"/>
  <path class="st0" d="M285.4,21.2l18.8,38.9c-22.4,12.6-44.1,26.6-64.1,42.7-26.4,21.2-62.5,56.2-64.3,92.6-.1,2.8,0,5.5.3,8.3,2.2-.6,4.5-1,6.8-1.3,63.8-8.4,121.6,48,107.2,113.8-13.2,60.7-70.1,88.1-127.7,76.7-55.5-11-90.8-52.1-96.5-109l-.8-10.1c.2-5.5-.2-11,0-16.5.3-20.4,3.9-41.7,10.2-61,13.2-40.4,48.6-74.8,81.2-100.1,37.6-29.1,80.5-53.5,123.8-73.4.7-.3,1.5-.6,2.2-.8s1.5-.5,2.3-.7h.5Z"/>
</svg>