<?xml version="1.0" encoding="UTF-8"?>
<svg id="Layer_1" xmlns="http://www.w3.org/2000/svg" version="1.1" viewBox="0 0 409.6 409.6">
  <!-- Generator: Adobe Illustrator 29.5.1, SVG Export Plug-In . SVG Version: 2.1.0 Build 141)  -->
  <defs>
    <style>
      .st0 {
        fill: #fff;
      }
    </style>
  </defs>
  <path class="st0" d="M398.1,37.7c-127.5,0-259.2,0-386.7,0-6.5,1-10.7,3.4-11.4,10.4v323.4c.5,5.1,2.6,8.4,7.7,10,131.3,0,262.6,0,393.8,0,5.4-1.3,7.6-4.8,8.1-10V48.1c-.7-6.9-4.9-9.5-11.5-10.4ZM153.6,63.3h40v20.8h-40v-20.8ZM64.8,356.3H24v-20.8h40.8v20.8ZM64.8,84H24v-20.8h40.8v20.8ZM129.6,356.3h-40.8v-20.8h39.6c0,0,1.2,1.1,1.2,1.2v19.6ZM129.6,84h-40.8v-20.8h40.8v20.8ZM193.6,356.3h-40v-20.8h40v20.8ZM183.7,260.6c-2.8,1.5-7.5,4.3-10.5,4.7-9.1,1.1-16.8-3.3-18.8-12.4v-86.2c.9-5.7,7-11.3,12.6-12.3,3.9-.7,7.9,0,11.5,1.8,21.5,14.3,46.9,25.4,68.2,39.7,10.9,7.3,12.3,18.5,1.6,26.9-21.7,11.7-42.8,26.4-64.5,37.8ZM257.6,356.3h-40v-20.8h40v20.8ZM257.6,84h-40v-20.8h40v20.8ZM322.4,356.3h-40.8v-20.8h39.6c0,0,1.2,1.1,1.2,1.2v19.6ZM322.4,84h-40.8v-20.8h40.8v20.8ZM385.6,356.3h-39.2v-20.8h39.2v20.8ZM385.6,84h-39.2v-20.8h39.2v20.8Z"/>
</svg>